# xmcd
#
# Track frame offsets: 
#        187
#        14280
#        27502
#        36735
#        56630
#        69195
#        79597
#        90550
#        103157
#        113570
#        124180
#        140432
#
# Disc length: 2073 seconds
#
# Revision: 4
# Processed by: cddbd v1.5.2PL0 Copyright (c) Steve Scherf et al.
# Submitted via: ExactAudioCopyFreeDBPlugin 1.0
#
DISCID=9e08170c
DTITLE=Various Artist - Roy Rogers Tribute
DYEAR=1991
DGENRE=Country
TTITLE0=Roy Rogers and The Kentucky Headhunters - That's How The West Wa
TTITLE0=s Swung
TTITLE1=Roy Rogers and Randy Travis - Here's Hopin'
TTITLE2=Roy Rogers and Clint Black - Hold On Partner
TTITLE3=Roy Rogers, K.T. Oslin and Restless Heart - Tumbling Tumbleweeds
TTITLE4=Roy Rogers and Emmylou Harris - Little Joe The Wrangler
TTITLE5=Roy Rogers and Ricky Van Shelton - When Pay Day Rolls Around
TTITLE6=Roy Rogers and Kathy Mattea - Final Frontier
TTITLE7=Roy Rogers, Lorrie Morgan and The Oak Ridge Boys - Don't Fence M
TTITLE7=e In
TTITLE8=Roy Rogers and Willie Nelson - Rodeo Road
TTITLE9=Roy Rogers - Alive And Kickin'
TTITLE10=Dusty Rogers - King Of The Cowboys
TTITLE11=Roy Rogers, Dale Evans, Dusty Rogers and Friends - Happy Trails
EXTD=
EXTT0=Roy and The Kentucky Headhunters
EXTT1=Roy and Randy Travis
EXTT2=Roy and Clint Black
EXTT3=Roy and K.T. Oslin and Restless Heart
EXTT4=Roy and Emmylou Harris
EXTT5=Roy and Ricky Van Shelton
EXTT6=Roy and Kathy Mattea
EXTT7=Roy and Lorrie Morgan and The Oak Ridge Boys
EXTT8=Roy and Willie Nelson
EXTT9=Roy Rogers
EXTT10=Dusty Rogers
EXTT11=Roy, Dale Evans, Dusty Rogers and Friends
PLAYORDER=
